<svg xmlns="http://www.w3.org/2000/svg" data-name="Layer 1" viewBox="0 0 168 168" id="chat"><circle cx="2" cy="145.258" r="2" fill="#2d4356"></circle><path fill="#2d4356" d="M11 143.25826H8a2 2 0 0 0 0 4h3a2 2 0 0 0 0-4zM160 143.25826h-3a2 2 0 0 0 0 4h3a2 2 0 0 0 0-4z"></path><circle cx="166" cy="145.258" r="2" fill="#2d4356"></circle><path fill="#0bceb2" d="M118.15387 151.25826h-8.30774a2.00641 2.00641 0 0 0 0 4h8.30774a2.00641 2.00641 0 0 0 0-4zM58.15387 151.25826H49.84613a2.00641 2.00641 0 0 0 0 4h8.30774a2.00641 2.00641 0 0 0 0-4zM104 151.25826H64a2 2 0 0 0 0 4H79.94v2H72a2 2 0 0 0 0 4H97a2 2 0 1 0 0-4H88.06v-2H104a2 2 0 1 0 0-4z"></path><path fill="#2d4356" d="M24 116.76436H47.38611l12.838 12.3739A4 4 0 0 0 67 126.25826v-9.4939h3a4 4 0 0 0 4-4V86.25826a4 4 0 0 0-4-4H24a4 4 0 0 0-4 4v26.5061A4 4 0 0 0 24 116.76436zm0-30.5061H70v26.5061H63v13.4939l-14-13.4939H24zM98 85.08956h3v10.1687a3.9999 3.9999 0 0 0 6.84534 2.8114l12.82556-12.9801H144a4 4 0 0 0 4-4V53.25826a4 4 0 0 0-4-4H98a4 4 0 0 0-4 4v27.8313A4 4 0 0 0 98 85.08956zm0-31.8313h46v27.8313H119l-14 14.1687V81.08956H98z"></path><path fill="#0bceb2" d="M37 77.25826H90v-4H37a8.00873 8.00873 0 0 0-7.411 5h4.79053A3.96671 3.96671 0 0 1 37 77.25826zM29 120.76412v10.49414a8.00913 8.00913 0 0 0 8 8h94a8.00913 8.00913 0 0 0 8-8V89.08931h-4v42.16895a3.99992 3.99992 0 0 1-4 4H37a4 4 0 0 1-4-4V120.76412z"></path><path fill="#2d4356" d="M150.72131 143.25826H17.27869a2.017 2.017 0 1 0 0 4H150.72131a2.017 2.017 0 1 0 0-4zM110 37.25826a3 3 0 1 0-3-3A3.00344 3.00344 0 0 0 110 37.25826zm0-4.5a1.5 1.5 0 1 1-1.5 1.5A1.50148 1.50148 0 0 1 110 32.75826zM158.30471 73.25826a2 2 0 1 0 2 2A2.00229 2.00229 0 0 0 158.30471 73.25826zm0 3a1 1 0 1 1 1-1A1.001 1.001 0 0 1 158.30471 76.25826zM71.30471 57.25826a2 2 0 1 0 2 2A2.00229 2.00229 0 0 0 71.30471 57.25826zm0 3a1 1 0 1 1 1-1A1.001 1.001 0 0 1 71.30471 60.25826zM154.58056 7.05847a2 2 0 1 0 2 2A2.00229 2.00229 0 0 0 154.58056 7.05847zm0 3a1 1 0 1 1 1-1A1.001 1.001 0 0 1 154.58056 10.05847zM17.30471 32.25826a2 2 0 1 0-2 2A2.00229 2.00229 0 0 0 17.30471 32.25826zm-3 0a1 1 0 1 1 1 1A1.001 1.001 0 0 1 14.30471 32.25826z"></path><polygon fill="#0bceb2" points="10.888 73.27 12.375 71.314 11.436 70.782 10.481 72.972 10.45 72.972 9.48 70.797 8.525 71.345 9.996 73.254 9.996 73.285 7.695 72.988 7.695 74.052 10.011 73.755 10.011 73.786 8.525 75.695 9.416 76.258 10.434 74.052 10.465 74.052 11.404 76.242 12.39 75.679 10.888 73.801 10.888 73.77 13.25 74.052 13.25 72.988 10.888 73.301 10.888 73.27"></polygon><polygon fill="#0bceb2" points="52.081 38.325 51.225 39.424 51.739 39.748 52.325 38.478 52.342 38.478 52.883 39.739 53.451 39.415 52.586 38.334 52.586 38.316 53.946 38.478 53.946 37.865 52.586 38.045 52.586 38.027 53.442 36.901 52.902 36.595 52.352 37.856 52.334 37.856 51.775 36.604 51.225 36.919 52.072 38.019 52.072 38.037 50.747 37.865 50.747 38.478 52.081 38.307 52.081 38.325"></polygon><polygon fill="#0bceb2" points="160.029 38.693 160.029 37.65 157.712 37.956 157.712 37.926 159.17 36.008 158.249 35.486 157.313 37.634 157.282 37.634 156.331 35.501 155.394 36.038 156.837 37.911 156.837 37.941 154.581 37.65 154.581 38.693 156.852 38.402 156.852 38.433 155.394 40.304 156.269 40.857 157.267 38.693 157.297 38.693 158.218 40.842 159.185 40.289 157.712 38.448 157.712 38.417 160.029 38.693"></polygon><polygon fill="#0bceb2" points="74.351 8.846 75.609 7.192 74.815 6.742 74.008 8.595 73.981 8.595 73.16 6.755 72.352 7.218 73.597 8.833 73.597 8.86 71.65 8.608 71.65 9.508 73.61 9.257 73.61 9.283 72.352 10.898 73.106 11.375 73.968 9.508 73.994 9.508 74.788 11.362 75.622 10.885 74.351 9.296 74.351 9.27 76.35 9.508 76.35 8.608 74.351 8.873 74.351 8.846"></polygon></svg>